<?xml version="1.0" encoding="UTF-8" standalone="no"?>
<!DOCTYPE svg PUBLIC "-//W3C//DTD SVG 1.1//EN"
 "http://www.w3.org/Graphics/SVG/1.1/DTD/svg11.dtd">
<!-- Generated by graphviz version 2.28.0 (20121206.2134)
 -->
<!-- Title: G Pages: 1 -->
<svg width="526pt" height="812pt"
 viewBox="0.00 0.00 526.00 812.00" xmlns="http://www.w3.org/2000/svg" xmlns:xlink="http://www.w3.org/1999/xlink">
<g id="graph1" class="graph" transform="scale(1 1) rotate(0) translate(4 808)">
<title>G</title>
<polygon fill="white" stroke="white" points="-4,5 -4,-808 523,-808 523,5 -4,5"/>
<g id="graph2" class="cluster"><title>cluster_Lolmvc</title>
<polyline fill="none" stroke="gray" points="20,-44 370,-44 "/>
<path fill="none" stroke="gray" d="M370,-44C376,-44 382,-50 382,-56"/>
<polyline fill="none" stroke="gray" points="382,-56 382,-508 "/>
<path fill="none" stroke="gray" d="M382,-508C382,-514 376,-520 370,-520"/>
<polyline fill="none" stroke="gray" points="370,-520 20,-520 "/>
<path fill="none" stroke="gray" d="M20,-520C14,-520 8,-514 8,-508"/>
<polyline fill="none" stroke="gray" points="8,-508 8,-56 "/>
<path fill="none" stroke="gray" d="M8,-56C8,-50 14,-44 20,-44"/>
<text text-anchor="middle" x="195" y="-507.2" font-family="Times,serif" font-size="11.00" fill="gray">Lolmvc</text>
</g>
<g id="graph3" class="cluster"><title>cluster_Lolmvc\Controller</title>
<polyline fill="none" stroke="gray" points="28,-420 319,-420 "/>
<path fill="none" stroke="gray" d="M319,-420C325,-420 331,-426 331,-432"/>
<polyline fill="none" stroke="gray" points="331,-432 331,-480 "/>
<path fill="none" stroke="gray" d="M331,-480C331,-486 325,-492 319,-492"/>
<polyline fill="none" stroke="gray" points="319,-492 28,-492 "/>
<path fill="none" stroke="gray" d="M28,-492C22,-492 16,-486 16,-480"/>
<polyline fill="none" stroke="gray" points="16,-480 16,-432 "/>
<path fill="none" stroke="gray" d="M16,-432C16,-426 22,-420 28,-420"/>
<text text-anchor="middle" x="173.5" y="-479.2" font-family="Times,serif" font-size="11.00" fill="gray">Controller</text>
</g>
<g id="graph4" class="cluster"><title>cluster_Lolmvc\Model</title>
<polyline fill="none" stroke="gray" points="41,-340 319,-340 "/>
<path fill="none" stroke="gray" d="M319,-340C325,-340 331,-346 331,-352"/>
<polyline fill="none" stroke="gray" points="331,-352 331,-400 "/>
<path fill="none" stroke="gray" d="M331,-400C331,-406 325,-412 319,-412"/>
<polyline fill="none" stroke="gray" points="319,-412 41,-412 "/>
<path fill="none" stroke="gray" d="M41,-412C35,-412 29,-406 29,-400"/>
<polyline fill="none" stroke="gray" points="29,-400 29,-352 "/>
<path fill="none" stroke="gray" d="M29,-352C29,-346 35,-340 41,-340"/>
<text text-anchor="middle" x="180" y="-399.2" font-family="Times,serif" font-size="11.00" fill="gray">Model</text>
</g>
<g id="graph5" class="cluster"><title>cluster_Lolmvc\Service</title>
<polyline fill="none" stroke="gray" points="212,-98 362,-98 "/>
<path fill="none" stroke="gray" d="M362,-98C368,-98 374,-104 374,-110"/>
<polyline fill="none" stroke="gray" points="374,-110 374,-320 "/>
<path fill="none" stroke="gray" d="M374,-320C374,-326 368,-332 362,-332"/>
<polyline fill="none" stroke="gray" points="362,-332 212,-332 "/>
<path fill="none" stroke="gray" d="M212,-332C206,-332 200,-326 200,-320"/>
<polyline fill="none" stroke="gray" points="200,-320 200,-110 "/>
<path fill="none" stroke="gray" d="M200,-110C200,-104 206,-98 212,-98"/>
<text text-anchor="middle" x="287" y="-319.2" font-family="Times,serif" font-size="11.00" fill="gray">Service</text>
</g>
<g id="graph6" class="cluster"><title>cluster_Lolmvc\View</title>
<polyline fill="none" stroke="gray" points="48,-152 112,-152 "/>
<path fill="none" stroke="gray" d="M112,-152C118,-152 124,-158 124,-164"/>
<polyline fill="none" stroke="gray" points="124,-164 124,-212 "/>
<path fill="none" stroke="gray" d="M124,-212C124,-218 118,-224 112,-224"/>
<polyline fill="none" stroke="gray" points="112,-224 48,-224 "/>
<path fill="none" stroke="gray" d="M48,-224C42,-224 36,-218 36,-212"/>
<polyline fill="none" stroke="gray" points="36,-212 36,-164 "/>
<path fill="none" stroke="gray" d="M36,-164C36,-158 42,-152 48,-152"/>
<text text-anchor="middle" x="80" y="-211.2" font-family="Times,serif" font-size="11.00" fill="gray">View</text>
</g>
<g id="graph7" class="cluster"><title>cluster_Skel</title>
<polyline fill="none" stroke="gray" points="227,-528 498,-528 "/>
<path fill="none" stroke="gray" d="M498,-528C504,-528 510,-534 510,-540"/>
<polyline fill="none" stroke="gray" points="510,-540 510,-704 "/>
<path fill="none" stroke="gray" d="M510,-704C510,-710 504,-716 498,-716"/>
<polyline fill="none" stroke="gray" points="498,-716 227,-716 "/>
<path fill="none" stroke="gray" d="M227,-716C221,-716 215,-710 215,-704"/>
<polyline fill="none" stroke="gray" points="215,-704 215,-540 "/>
<path fill="none" stroke="gray" d="M215,-540C215,-534 221,-528 227,-528"/>
<text text-anchor="middle" x="362.5" y="-703.2" font-family="Times,serif" font-size="11.00" fill="gray">Skel</text>
</g>
<g id="graph8" class="cluster"><title>cluster_Skel\Controller</title>
<polyline fill="none" stroke="gray" points="235,-616 490,-616 "/>
<path fill="none" stroke="gray" d="M490,-616C496,-616 502,-622 502,-628"/>
<polyline fill="none" stroke="gray" points="502,-628 502,-676 "/>
<path fill="none" stroke="gray" d="M502,-676C502,-682 496,-688 490,-688"/>
<polyline fill="none" stroke="gray" points="490,-688 235,-688 "/>
<path fill="none" stroke="gray" d="M235,-688C229,-688 223,-682 223,-676"/>
<polyline fill="none" stroke="gray" points="223,-676 223,-628 "/>
<path fill="none" stroke="gray" d="M223,-628C223,-622 229,-616 235,-616"/>
<text text-anchor="middle" x="362.5" y="-675.2" font-family="Times,serif" font-size="11.00" fill="gray">Controller</text>
</g>
<g id="graph9" class="cluster"><title>cluster_Skel\Model</title>
<polyline fill="none" stroke="gray" points="252,-536 490,-536 "/>
<path fill="none" stroke="gray" d="M490,-536C496,-536 502,-542 502,-548"/>
<polyline fill="none" stroke="gray" points="502,-548 502,-596 "/>
<path fill="none" stroke="gray" d="M502,-596C502,-602 496,-608 490,-608"/>
<polyline fill="none" stroke="gray" points="490,-608 252,-608 "/>
<path fill="none" stroke="gray" d="M252,-608C246,-608 240,-602 240,-596"/>
<polyline fill="none" stroke="gray" points="240,-596 240,-548 "/>
<path fill="none" stroke="gray" d="M240,-548C240,-542 246,-536 252,-536"/>
<text text-anchor="middle" x="371" y="-595.2" font-family="Times,serif" font-size="11.00" fill="gray">Model</text>
</g>
<g id="graph10" class="cluster"><title>cluster_global</title>
<polyline fill="none" stroke="gray" points="442,-724 492,-724 "/>
<path fill="none" stroke="gray" d="M492,-724C498,-724 504,-730 504,-736"/>
<polyline fill="none" stroke="gray" points="504,-736 504,-784 "/>
<path fill="none" stroke="gray" d="M504,-784C504,-790 498,-796 492,-796"/>
<polyline fill="none" stroke="gray" points="492,-796 442,-796 "/>
<path fill="none" stroke="gray" d="M442,-796C436,-796 430,-790 430,-784"/>
<polyline fill="none" stroke="gray" points="430,-784 430,-736 "/>
<path fill="none" stroke="gray" d="M430,-736C430,-730 436,-724 442,-724"/>
<text text-anchor="middle" x="467" y="-783.2" font-family="Times,serif" font-size="11.00" fill="gray">global</text>
</g>
<!-- \\Lolmvc\\Controller\\Error404 -->
<g id="node3" class="node"><title>\\Lolmvc\\Controller\\Error404</title>
<a xlink:href="lolmvc.controller.error404.html" xlink:title="Error404" target="_parent">
<polygon fill="none" stroke="black" points="322.5,-464 251.5,-464 251.5,-428 322.5,-428 322.5,-464"/>
<text text-anchor="middle" x="287" y="-443.2" font-family="Courier,monospace" font-size="11.00">Error404</text>
</a>
</g>
<!-- \\Lolmvc\\Controller\\BaseController -->
<g id="node4" class="node"><title>\\Lolmvc\\Controller\\BaseController</title>
<a xlink:href="lolmvc.controller.basecontroller.html" xlink:title="«abstract»&lt;br/&gt;BaseController" target="_parent">
<polygon fill="none" stroke="black" points="136,-464 24,-464 24,-428 136,-428 136,-464"/>
<text text-anchor="start" x="46" y="-449.7" font-family="Courier,monospace" font-size="11.00">«abstract»</text>
<text text-anchor="start" x="32.5" y="-438.7" font-family="Courier,monospace" font-size="11.00">BaseController</text>
</a>
</g>
<!-- \\Lolmvc\\Controller\\Error404&#45;&gt;\\Lolmvc\\Controller\\BaseController -->
<g id="edge11" class="edge"><title>\\Lolmvc\\Controller\\Error404&#45;&gt;\\Lolmvc\\Controller\\BaseController</title>
<path fill="none" stroke="black" d="M251.225,-446C222.529,-446 181.015,-446 146.168,-446"/>
<polygon fill="none" stroke="black" points="146.063,-442.5 136.063,-446 146.063,-449.5 146.063,-442.5"/>
</g>
<!-- \\Lolmvc\\Model\\Error404 -->
<g id="node6" class="node"><title>\\Lolmvc\\Model\\Error404</title>
<a xlink:href="lolmvc.model.error404.html" xlink:title="Error404" target="_parent">
<polygon fill="none" stroke="black" points="322.5,-384 251.5,-384 251.5,-348 322.5,-348 322.5,-384"/>
<text text-anchor="middle" x="287" y="-363.2" font-family="Courier,monospace" font-size="11.00">Error404</text>
</a>
</g>
<!-- \\Lolmvc\\Model\\BaseModel -->
<g id="node7" class="node"><title>\\Lolmvc\\Model\\BaseModel</title>
<a xlink:href="lolmvc.model.basemodel.html" xlink:title="«abstract»&lt;br/&gt;BaseModel" target="_parent">
<polygon fill="none" stroke="black" points="122.5,-384 37.5,-384 37.5,-348 122.5,-348 122.5,-384"/>
<text text-anchor="start" x="46" y="-369.7" font-family="Courier,monospace" font-size="11.00">«abstract»</text>
<text text-anchor="start" x="49.5" y="-358.7" font-family="Courier,monospace" font-size="11.00">BaseModel</text>
</a>
</g>
<!-- \\Lolmvc\\Model\\Error404&#45;&gt;\\Lolmvc\\Model\\BaseModel -->
<g id="edge15" class="edge"><title>\\Lolmvc\\Model\\Error404&#45;&gt;\\Lolmvc\\Model\\BaseModel</title>
<path fill="none" stroke="black" d="M251.225,-366C218.751,-366 169.862,-366 132.797,-366"/>
<polygon fill="none" stroke="black" points="132.68,-362.5 122.68,-366 132.68,-369.5 132.68,-362.5"/>
</g>
<!-- \\Lolmvc\\Service\\Autoloader -->
<g id="node9" class="node"><title>\\Lolmvc\\Service\\Autoloader</title>
<a xlink:href="lolmvc.service.autoloader.html" xlink:title="Autoloader" target="_parent">
<polygon fill="none" stroke="black" points="329,-304 245,-304 245,-268 329,-268 329,-304"/>
<text text-anchor="middle" x="287" y="-283.2" font-family="Courier,monospace" font-size="11.00">Autoloader</text>
</a>
</g>
<!-- \\Lolmvc\\Service\\Route -->
<g id="node10" class="node"><title>\\Lolmvc\\Service\\Route</title>
<a xlink:href="lolmvc.service.route.html" xlink:title="Route" target="_parent">
<polygon fill="none" stroke="black" points="314,-250 260,-250 260,-214 314,-214 314,-250"/>
<text text-anchor="middle" x="287" y="-229.2" font-family="Courier,monospace" font-size="11.00">Route</text>
</a>
</g>
<!-- \\Lolmvc\\Service\\PageNotFoundException -->
<g id="node11" class="node"><title>\\Lolmvc\\Service\\PageNotFoundException</title>
<a xlink:href="lolmvc.service.pagenotfoundexception.html" xlink:title="PageNotFoundException" target="_parent">
<polygon fill="none" stroke="black" points="366,-142 208,-142 208,-106 366,-106 366,-142"/>
<text text-anchor="middle" x="287" y="-121.2" font-family="Courier,monospace" font-size="11.00">PageNotFoundException</text>
</a>
</g>
<!-- \\Exception -->
<g id="node27" class="node"><title>\\Exception</title>
<ellipse fill="none" stroke="black" cx="80" cy="-18" rx="50.0912" ry="18"/>
<text text-anchor="middle" x="80" y="-14.3" font-family="Times,serif" font-size="14.00" fill="gray">\Exception</text>
</g>
<!-- \\Lolmvc\\Service\\PageNotFoundException&#45;&gt;\\Exception -->
<g id="edge13" class="edge"><title>\\Lolmvc\\Service\\PageNotFoundException&#45;&gt;\\Exception</title>
<path fill="none" stroke="black" d="M209.069,-105.849C205.973,-104.639 202.938,-103.357 200,-102 165.647,-86.1389 130.8,-60.1234 107.771,-41.2418"/>
<polygon fill="none" stroke="black" points="109.768,-38.3503 99.844,-34.6402 105.288,-43.7292 109.768,-38.3503"/>
</g>
<!-- \\Lolmvc\\Service\\Template -->
<g id="node12" class="node"><title>\\Lolmvc\\Service\\Template</title>
<a xlink:href="lolmvc.service.template.html" xlink:title="Template" target="_parent">
<polygon fill="none" stroke="black" points="322.5,-196 251.5,-196 251.5,-160 322.5,-160 322.5,-196"/>
<text text-anchor="middle" x="287" y="-175.2" font-family="Courier,monospace" font-size="11.00">Template</text>
</a>
</g>
<!-- \\Lolmvc\\View\\BaseView -->
<g id="node14" class="node"><title>\\Lolmvc\\View\\BaseView</title>
<a xlink:href="lolmvc.view.baseview.html" xlink:title="BaseView" target="_parent">
<polygon fill="none" stroke="black" points="115.5,-196 44.5,-196 44.5,-160 115.5,-160 115.5,-196"/>
<text text-anchor="middle" x="80" y="-175.2" font-family="Courier,monospace" font-size="11.00">BaseView</text>
</a>
</g>
<!-- \\Lolmvc\\Service\\Template&#45;&gt;\\Lolmvc\\View\\BaseView -->
<g id="edge25" class="edge"><title>\\Lolmvc\\Service\\Template&#45;&gt;\\Lolmvc\\View\\BaseView</title>
<path fill="none" stroke="black" stroke-dasharray="1,5" d="M251.225,-178C216.663,-178 163.506,-178 125.8,-178"/>
<polygon fill="none" stroke="black" points="125.603,-174.5 115.603,-178 125.603,-181.5 125.603,-174.5"/>
</g>
<!-- \\Lolmvc\\App -->
<g id="node15" class="node"><title>\\Lolmvc\\App</title>
<a xlink:href="lolmvc.app.html" xlink:title="App" target="_parent">
<polygon fill="none" stroke="black" points="314,-88 260,-88 260,-52 314,-52 314,-88"/>
<text text-anchor="middle" x="287" y="-67.2" font-family="Courier,monospace" font-size="11.00">App</text>
</a>
</g>
<!-- \\Skel\\Controller\\SkelController -->
<g id="node18" class="node"><title>\\Skel\\Controller\\SkelController</title>
<a xlink:href="skel.controller.skelcontroller.html" xlink:title="«abstract»&lt;br/&gt;SkelController" target="_parent">
<polygon fill="none" stroke="black" points="343,-660 231,-660 231,-624 343,-624 343,-660"/>
<text text-anchor="start" x="253" y="-645.7" font-family="Courier,monospace" font-size="11.00">«abstract»</text>
<text text-anchor="start" x="239.5" y="-634.7" font-family="Courier,monospace" font-size="11.00">SkelController</text>
</a>
</g>
<!-- \\Skel\\Controller\\SkelController&#45;&gt;\\Lolmvc\\Controller\\BaseController -->
<g id="edge17" class="edge"><title>\\Skel\\Controller\\SkelController&#45;&gt;\\Lolmvc\\Controller\\BaseController</title>
<path fill="none" stroke="black" d="M230.711,-628.353C219.908,-624.176 209.117,-618.82 200,-612 149.824,-574.467 112.218,-509.655 93.7358,-473.108"/>
<polygon fill="none" stroke="black" points="96.8148,-471.438 89.2438,-464.027 90.5404,-474.542 96.8148,-471.438"/>
</g>
<!-- \\Skel\\Controller\\Main -->
<g id="node19" class="node"><title>\\Skel\\Controller\\Main</title>
<a xlink:href="skel.controller.main.html" xlink:title="Main" target="_parent">
<polygon fill="none" stroke="black" points="494,-660 440,-660 440,-624 494,-624 494,-660"/>
<text text-anchor="middle" x="467" y="-639.2" font-family="Courier,monospace" font-size="11.00">Main</text>
</a>
</g>
<!-- \\Skel\\Controller\\Main&#45;&gt;\\Skel\\Controller\\SkelController -->
<g id="edge19" class="edge"><title>\\Skel\\Controller\\Main&#45;&gt;\\Skel\\Controller\\SkelController</title>
<path fill="none" stroke="black" d="M439.735,-642C417.071,-642 383.362,-642 353.469,-642"/>
<polygon fill="none" stroke="black" points="353.079,-638.5 343.079,-642 353.078,-645.5 353.079,-638.5"/>
</g>
<!-- \\Skel\\Model\\SkelModel -->
<g id="node21" class="node"><title>\\Skel\\Model\\SkelModel</title>
<a xlink:href="skel.model.skelmodel.html" xlink:title="SkelModel" target="_parent">
<polygon fill="none" stroke="black" points="325.5,-580 248.5,-580 248.5,-544 325.5,-544 325.5,-580"/>
<text text-anchor="middle" x="287" y="-559.2" font-family="Courier,monospace" font-size="11.00">SkelModel</text>
</a>
</g>
<!-- \\Skel\\Model\\SkelModel&#45;&gt;\\Lolmvc\\Model\\BaseModel -->
<g id="edge21" class="edge"><title>\\Skel\\Model\\SkelModel&#45;&gt;\\Lolmvc\\Model\\BaseModel</title>
<path fill="none" stroke="black" d="M259.076,-543.899C241.41,-531.423 218.281,-513.916 200,-496 167.48,-464.129 167.166,-449.196 136,-416 127.953,-407.428 118.667,-398.625 110.044,-390.84"/>
<polygon fill="none" stroke="black" points="112.164,-388.042 102.365,-384.013 107.513,-393.273 112.164,-388.042"/>
</g>
<!-- \\Skel\\Model\\Main -->
<g id="node22" class="node"><title>\\Skel\\Model\\Main</title>
<a xlink:href="skel.model.main.html" xlink:title="Main" target="_parent">
<polygon fill="none" stroke="black" points="494,-580 440,-580 440,-544 494,-544 494,-580"/>
<text text-anchor="middle" x="467" y="-559.2" font-family="Courier,monospace" font-size="11.00">Main</text>
</a>
</g>
<!-- \\Skel\\Model\\Main&#45;&gt;\\Skel\\Model\\SkelModel -->
<g id="edge23" class="edge"><title>\\Skel\\Model\\Main&#45;&gt;\\Skel\\Model\\SkelModel</title>
<path fill="none" stroke="black" d="M439.735,-562C412.392,-562 368.973,-562 335.574,-562"/>
<polygon fill="none" stroke="black" points="335.559,-558.5 325.559,-562 335.559,-565.5 335.559,-558.5"/>
</g>
<!-- \\Config -->
<g id="node24" class="node"><title>\\Config</title>
<a xlink:href="config.example.html" xlink:title="Config" target="_parent">
<polygon fill="none" stroke="black" points="495.5,-768 438.5,-768 438.5,-732 495.5,-732 495.5,-768"/>
<text text-anchor="middle" x="467" y="-747.2" font-family="Courier,monospace" font-size="11.00">Config</text>
</a>
</g>
</g>
</svg>
